<svg width="400" height="400" viewBox="0 0 400 400" fill="none" xmlns="http://www.w3.org/2000/svg">
  <!-- Circular background with gradient -->
  <circle cx="200" cy="200" r="190" fill="url(#gradient1)" stroke="url(#gradient2)" stroke-width="20"/>
  
  <!-- Face silhouette -->
  <path d="M120 180C120 140 150 120 200 120C250 120 280 140 280 180C280 200 270 220 260 240C250 260 240 280 230 300C220 320 210 340 200 350C190 340 180 320 170 300C160 280 150 260 140 240C130 220 120 200 120 180Z" fill="url(#gradient3)"/>
  
  <!-- P&C Text -->
  <text x="200" y="250" text-anchor="middle" fill="white" font-family="Arial, sans-serif" font-size="80" font-weight="bold">pc</text>
  
  <!-- Group text -->
  <text x="200" y="290" text-anchor="middle" fill="#333" font-family="Arial, sans-serif" font-size="24" font-weight="normal">Group</text>
  
  <!-- Bottom banner -->
  <rect x="0" y="320" width="400" height="40" fill="url(#gradient4)"/>
  <text x="200" y="345" text-anchor="middle" fill="white" font-family="Arial, sans-serif" font-size="14" font-weight="bold" letter-spacing="2">BEAUTY PAGEANTS • EVENTS • GROOMING</text>
  
  <defs>
    <linearGradient id="gradient1" x1="0%" y1="0%" x2="100%" y2="100%">
      <stop offset="0%" style="stop-color:#ff6ec7;stop-opacity:1" />
      <stop offset="50%" style="stop-color:#9333ea;stop-opacity:1" />
      <stop offset="100%" style="stop-color:#6366f1;stop-opacity:1" />
    </linearGradient>
    <linearGradient id="gradient2" x1="0%" y1="0%" x2="100%" y2="100%">
      <stop offset="0%" style="stop-color:#ff6ec7;stop-opacity:1" />
      <stop offset="100%" style="stop-color:#9333ea;stop-opacity:1" />
    </linearGradient>
    <linearGradient id="gradient3" x1="0%" y1="0%" x2="100%" y2="100%">
      <stop offset="0%" style="stop-color:#1e1b4b;stop-opacity:1" />
      <stop offset="50%" style="stop-color:#6366f1;stop-opacity:1" />
      <stop offset="100%" style="stop-color:#9333ea;stop-opacity:1" />
    </linearGradient>
    <linearGradient id="gradient4" x1="0%" y1="0%" x2="100%" y2="0%">
      <stop offset="0%" style="stop-color:#9333ea;stop-opacity:1" />
      <stop offset="100%" style="stop-color:#ff6ec7;stop-opacity:1" />
    </linearGradient>
  </defs>
</svg>